<svg xmlns="http://www.w3.org/2000/svg" xmlns:d="http://www.mathworks.com/blockgraphics" xmlns:xlink="http://www.w3.org/1999/xlink" version="1.1" id="svg" width="396" height="400" d:options="PreserveAspect:On;ScalingOnResizeMax:2.0;Rotate:Off;Resize:FitToBlock;">
	<defs>
		<style>
			.font-size-xs {
				font-size: 28px; stroke-width: 0.7px;
			}
					</style>
	</defs>
	<g id="part_3" title="part_0" ie-ports="left:simulink*simulink,top:,right:simulink,bottom:">
		<ellipse id="ellipse" class="ellipse" style="stroke-width: 3;" cx="196" cy="202.95" rx="163" ry="156.15"/>
		<text id="text" class="text font-size-xs" transform="matrix(0.8290375726,0.5591929035,-0.5591929035,0.8290375726,107.1964168636,-49.1136710246)" x="123.81" y="135.18">
			<tspan dx="0" dy="25.49" x="123.81">N</tspan>
		</text>
		<text id="text_77" class="text font-size-xs" transform="matrix(0.5877852523,-0.8090169944,0.8090169944,0.5877852523,-6.0677598364,250.2013361517)" x="233.15" y="115.48">
			<tspan dx="0" dy="25.49" x="233.15">S</tspan>
		</text>
		<ellipse id="ellipse_103" class="ellipse" style="fill:#ff13a6;" cx="198" cy="200" rx="7.16" ry="7.74"/>
		<ellipse id="ellipse_200" class="ellipse" style="fill:none;" cx="199.5" cy="200.26" rx="128.5" ry="118.65"/>
		<path id="Inductor" class="path" transform="matrix(-0.6156614753,0.7880107536,-0.7880107536,-0.6156614753,727.4738320166,199.8397095818)" d=" M 269.3,286.38 L 280.72,286.38 Q 283.01,268.28 292.15,268.28 Q 301.29,268.28 303.57,286.38 Q 305.86,268.28 315,268.28 Q 324.14,268.28 326.42,286.38 Q 328.71,268.28 337.85,268.28 Q 346.99,268.28 349.27,286.38 L 360.7,286.38"/>
		<path id="Inductor_202" class="path" d=" M 149.31,74.9 L 160.73,74.9 Q 163.02,56.8 172.16,56.8 Q 181.3,56.8 183.58,74.9 Q 185.87,56.8 195.01,56.8 Q 204.15,56.8 206.43,74.9 Q 208.72,56.8 217.86,56.8 Q 227,56.8 229.28,74.9 L 240.71,74.9"/>
		<path id="Inductor_203" class="path" transform="matrix(-0.4848096204,-0.8746197072,0.8746197072,-0.4848096204,-123.3995516484,450.6150875886)" d=" M 25.32,270.69 L 36.74,270.69 Q 39.03,252.59 48.17,252.59 Q 57.31,252.59 59.59,270.69 Q 61.88,252.59 71.02,252.59 Q 80.16,252.59 82.44,270.69 Q 84.73,252.59 93.87,252.59 Q 103.01,252.59 105.29,270.69 L 116.72,270.69"/>
		<ellipse id="ellipse_83" class="ellipse" style="fill:none;" cx="199.14" cy="198.9" rx="104.88" ry="96.9"/>
		<g id="group">
			<path id="path" class="path" d=" M 164.02,119.75 Q 137.52,131.8 124.27,150.85 Q 111.02,169.9 111.01,195.95"/>
			<path id="path_127" class="path" d=" M 172.02,139.75 Q 151.01,143.06 140.51,157.85 Q 130.01,172.63 130.01,198.9"/>
			<line id="line" class="line" x1="164.02" y1="119.75" x2="172.02" y2="139.75"/>
			<line id="line_148" class="line" x1="111.01" y1="195.95" x2="130.01" y2="198.9"/>
		</g>
		<g id="group_153">
			<path id="path_149" class="path" transform="matrix(-1,0,0,-1,526.4668579102,474.4156799316)" d=" M 289.73,199.1 Q 263.23,211.15 249.98,230.2 Q 236.73,249.25 236.72,275.3"/>
			<path id="path_150" class="path" transform="matrix(-1,0,0,-1,499.4668579102,451.4656982422)" d=" M 270.73,196.15 Q 249.72,199.46 239.22,214.25 Q 228.72,229.03 228.72,255.3"/>
			<line id="line_151" class="line" transform="matrix(-1,0,0,-1,465.4599914551,530.6199951172)" x1="228.73" y1="255.31" x2="236.73" y2="275.31"/>
			<line id="line_152" class="line" transform="matrix(-1,0,0,-1,560.4799804689,395.2699890137)" x1="270.74" y1="196.16" x2="289.74" y2="199.11"/>
		</g>
		<g id="group_158">
			<path id="path_154" class="path" transform="matrix(0,1,-1,0,381.0726470947,-103.8849334718)" d=" M 268.97,100.49 Q 242.47,112.54 229.22,131.59 Q 215.97,150.64 215.96,176.69"/>
			<path id="path_155" class="path" transform="matrix(0,1,-1,0,383.0862579346,-78.9128875733)" d=" M 251.98,122.52 Q 230.97,125.83 220.47,140.62 Q 209.97,155.4 209.97,181.67"/>
			<line id="line_156" class="line" transform="matrix(0,1,-1,0,439.6500091553,-101.4900054932)" x1="266.57" y1="159.08" x2="274.57" y2="179.08"/>
			<line id="line_157" class="line" transform="matrix(0,1,-1,0,324.4749908447,-81.3249969483)" x1="193.4" y1="120.1" x2="212.4" y2="123.05"/>
		</g>
		<g id="group_163">
			<path id="path_159" class="path" transform="matrix(0,-1,1,0,-99.6365203857,409.5252838136)" d=" M 181.45,216.47 Q 154.95,228.52 141.7,247.57 Q 128.45,266.62 128.44,292.67"/>
			<path id="path_160" class="path" transform="matrix(0,-1,1,0,-74.6401062012,407.5332336426)" d=" M 187.44,211.49 Q 166.43,214.8 155.93,229.59 Q 145.43,244.37 145.43,270.64"/>
			<line id="line_161" class="line" transform="matrix(0,-1,1,0,-97.2400054932,350.9199981689)" x1="122.84" y1="214.08" x2="130.84" y2="234.08"/>
			<line id="line_162" class="line" transform="matrix(0,-1,1,0,-77.0749969482,466.094985962)" x1="185.01" y1="270.11" x2="204.01" y2="273.06"/>
		</g>
		<text id="text_164" class="text font-size-xs" transform="matrix(0.8290375726,0.5591929035,-0.5591929035,0.8290375726,180.4365159645,-107.9912482708)" x="256.72" y="225.52">
			<tspan dx="0" dy="25.49" x="256.72">N</tspan>
		</text>
		<text id="text_165" class="text font-size-xs" transform="matrix(0.5877852523,-0.8090169944,0.8090169944,0.5877852523,-147.4206798542,226.2806103412)" x="139" y="242.23">
			<tspan dx="0" dy="25.49" x="139">S</tspan>
		</text>
	</g>
</svg>
