<svg xmlns="http://www.w3.org/2000/svg" xmlns:d="http://www.mathworks.com/blockgraphics" xmlns:xlink="http://www.w3.org/1999/xlink" version="1.1" id="svg" width="400" height="400" d:options="PreserveAspect:On;ScalingOnResizeMax:2.0;Rotate:Off;Resize:FitToBlock;">
	<g id="part_5" title="part_0" ie-ports="left:simulink*simulink,top:,right:simulink,bottom:">
		<ellipse id="ellipse" class="ellipse" style="stroke-width: 12;" cx="270.51" cy="142.91" rx="53.5" ry="52.91"/>
		<g id="Cylinder">
			<path id="part_1" class="path" style="fill:#ffffff;" transform="matrix(0.7771459615,-0.629320391,0.629320391,0.7771459615,-46.8330234466,153.3710957385)" d=" M 121.59,148.81 L 252.75,148.81 C 259.9,148.81 264.68,145.81 264.68,142.81 C 264.68,139.81 259.9,136.81 252.75,136.81 L 121.59,136.81 C 128.18,136.81 133.52,139.49 133.52,142.81 C 133.52,146.12 128.18,148.81 121.59,148.81 Z"/>
			<ellipse id="part_2" class="ellipse" transform="matrix(0.7771459615,-0.629320391,0.629320391,0.7771459615,-87.5550191961,128.4122567551)" cx="137.53" cy="187.83" rx="11.93" ry="6"/>
		</g>
		<g id="Cylinder_5">
			<path id="part_3" class="path" style="fill:#ffffff;" transform="matrix(0.7771459615,-0.629320391,0.629320391,0.7771459615,-36.2121123789,179.3559939646)" d=" M 163.59,146.81 L 294.75,146.81 C 301.9,146.81 306.68,143.81 306.68,140.81 C 306.68,137.81 301.9,134.81 294.75,134.81 L 163.59,134.81 C 170.18,134.81 175.52,137.49 175.52,140.81 C 175.52,144.12 170.18,146.81 163.59,146.81 Z"/>
			<ellipse id="part_4" class="ellipse" transform="matrix(0.7771459615,-0.629320391,0.629320391,0.7771459615,-76.9365087952,154.3980051022)" cx="179.53" cy="185.83" rx="11.93" ry="6"/>
		</g>
		<g id="Cylinder_8">
			<path id="part_6" class="path" style="fill:#ffffff;" transform="matrix(0.7771459615,-0.629320391,0.629320391,0.7771459615,-40.6598207203,199.8061849041)" d=" M 190.24,163.31 L 321.4,163.31 C 328.55,163.31 333.33,160.31 333.33,157.31 C 333.33,154.31 328.55,151.31 321.4,151.31 L 190.24,151.31 C 196.83,151.31 202.17,153.99 202.17,157.31 C 202.17,160.62 196.83,163.31 190.24,163.31 Z"/>
			<ellipse id="part_7" class="ellipse" transform="matrix(0.7771459615,-0.629320391,0.629320391,0.7771459615,-81.3812364805,174.8464813185)" cx="206.18" cy="202.33" rx="11.93" ry="6"/>
		</g>
		<g id="Cylinder_11">
			<path id="part_9" class="path" style="fill:#ffffff;" transform="matrix(0.7771459615,-0.629320391,0.629320391,0.7771459615,-60.9959908442,211.8723864611)" d=" M 197.11,198.06 L 328.27,198.06 C 335.42,198.06 340.2,195.06 340.2,192.06 C 340.2,189.06 335.42,186.06 328.27,186.06 L 197.11,186.06 C 203.7,186.06 209.04,188.74 209.04,192.06 C 209.04,195.37 203.7,198.06 197.11,198.06 Z"/>
			<ellipse id="part_10" class="ellipse" transform="matrix(0.7771459615,-0.629320391,0.629320391,0.7771459615,-101.7191105125,186.9140967742)" cx="213.05" cy="237.08" rx="11.93" ry="6"/>
		</g>
		<g id="Cylinder_17">
			<path id="part_15" class="path" style="fill:#ffffff;" transform="matrix(0.7771459615,-0.629320391,0.629320391,0.7771459615,-98.5706342994,155.1475570663)" d=" M 98.23,222.75 L 229.39,222.75 C 236.54,222.75 241.32,219.75 241.32,216.75 C 241.32,213.75 236.54,210.75 229.39,210.75 L 98.23,210.75 C 104.82,210.75 110.16,213.43 110.16,216.75 C 110.16,220.06 104.82,222.75 98.23,222.75 Z"/>
			<ellipse id="part_16" class="ellipse" transform="matrix(0.7771459615,-0.629320391,0.629320391,0.7771459615,-139.2928313205,130.1891567896)" cx="114.17" cy="261.77" rx="11.93" ry="6"/>
		</g>
		<g id="Cylinder_14">
			<path id="part_12" class="path" style="fill:#ffffff;" transform="matrix(0.7771459615,-0.629320391,0.629320391,0.7771459615,-93.4028019344,202.8965525327)" d=" M 168.23,239.33 L 299.39,239.33 C 306.54,239.33 311.32,236.33 311.32,233.33 C 311.32,230.33 306.54,227.33 299.39,227.33 L 168.23,227.33 C 174.82,227.33 180.16,230.01 180.16,233.33 C 180.16,236.64 174.82,239.33 168.23,239.33 Z"/>
			<ellipse id="part_13" class="ellipse" transform="matrix(0.7771459615,-0.629320391,0.629320391,0.7771459615,-134.1271914611,177.9365079307)" cx="184.17" cy="278.35" rx="11.93" ry="6"/>
		</g>
		<g id="Cylinder_20">
			<path id="part_18" class="path" style="fill:#ffffff;" transform="matrix(0.7771459615,-0.629320391,0.629320391,0.7771459615,-77.7859092484,144.5014474126)" d=" M 93.59,188.08 L 224.75,188.08 C 231.9,188.08 236.68,185.08 236.68,182.08 C 236.68,179.08 231.9,176.08 224.75,176.08 L 93.59,176.08 C 100.18,176.08 105.52,178.76 105.52,182.08 C 105.52,185.39 100.18,188.08 93.59,188.08 Z"/>
			<ellipse id="part_19" class="ellipse" transform="matrix(0.7771459615,-0.629320391,0.629320391,0.7771459615,-118.5083467206,119.5427648515)" cx="109.53" cy="227.1" rx="11.93" ry="6"/>
		</g>
		<g id="Cylinder_24">
			<path id="part_22" class="path" style="fill:#ffffff;" transform="matrix(0.7771459615,-0.629320391,0.629320391,0.7771459615,-104.4974119543,175.9461621142)" d=" M 124.63,241.52 L 255.79,241.52 C 262.94,241.52 267.72,238.52 267.72,235.52 C 267.72,232.52 262.94,229.52 255.79,229.52 L 124.63,229.52 C 131.22,229.52 136.56,232.2 136.56,235.52 C 136.56,238.83 131.22,241.52 124.63,241.52 Z"/>
			<ellipse id="part_23" class="ellipse" transform="matrix(0.7771459615,-0.629320391,0.629320391,0.7771459615,-145.2218386942,150.986195531)" cx="140.57" cy="280.54" rx="11.93" ry="6"/>
		</g>
		<ellipse id="ellipse_21" class="ellipse" style="fill:none;stroke-width: 11;" cx="159.55" cy="234.99" rx="53.5" ry="52.91"/>
		<line id="line" class="line" x1="252.51" y1="70.81" x2="105.76" y2="187.83"/>
		<line id="line_111" class="line" x1="339.01" y1="182.08" x2="206.18" y2="287.9"/>
		<path id="path" class="path" d=" M 252.51,70.81 Q 296.39,63.19 324.01,90.01 Q 351.63,116.83 339.01,182.08"/>
		<ellipse id="ellipse_224" class="ellipse" style="fill:none;" cx="159.55" cy="235" rx="72.22" ry="67.03"/>
	</g>
</svg>
