<svg xmlns="http://www.w3.org/2000/svg" xmlns:d="http://www.mathworks.com/blockgraphics" xmlns:xlink="http://www.w3.org/1999/xlink" version="1.1" id="svg" width="255" height="400" d:options="PreserveAspect:On;ScalingOnResizeMax:2;Rotate:Off;Resize:FitToBlock;">
	<defs>
		<style>
			.font-size-default {
				font-size: 26px; stroke-width: 0.65px;
			}
			.font-size-xs {
				font-size: 18px; stroke-width: 0.46px;
			}
					</style>
	</defs>
	<g id="part" title="part_0" ie-ports="left:simulink*simulink,top:,right:simulink*simulink*simulink,bottom:">
		<line id="line" class="line" x1="144" y1="117.52" x2="144" y2="144.2"/>
		<line id="line_26" class="line" x1="157.5" y1="117.51" x2="144" y2="128.7"/>
		<line id="line_54" class="line" x1="157.5" y1="144.2" x2="144" y2="134.2"/>
		<line id="line_73" class="line" x1="157.5" y1="144.2" x2="157.5" y2="139.2"/>
		<line id="line_85" class="line" x1="157.5" y1="144.2" x2="150.75" y2="144.2"/>
		<line id="line_116" class="line" x1="140.67" y1="122.81" x2="140.67" y2="138.91"/>
		<line id="line_124" class="line" x1="140.67" y1="130.86" x2="135.41" y2="130.86"/>
		<line id="line_132" class="line" x1="144.47" y1="160.1" x2="144.47" y2="186.78"/>
		<line id="line_133" class="line" x1="157.97" y1="160.09" x2="144.47" y2="171.28"/>
		<line id="line_134" class="line" x1="157.97" y1="186.78" x2="144.47" y2="176.78"/>
		<line id="line_135" class="line" x1="157.97" y1="186.78" x2="157.97" y2="181.78"/>
		<line id="line_136" class="line" x1="157.97" y1="186.78" x2="151.22" y2="186.78"/>
		<line id="line_137" class="line" x1="141.14" y1="165.39" x2="141.14" y2="181.49"/>
		<line id="line_138" class="line" x1="141.14" y1="173.44" x2="135.88" y2="173.44"/>
		<line id="line_139" class="line" x1="144" y1="212.92" x2="144" y2="239.6"/>
		<line id="line_140" class="line" x1="157.5" y1="212.91" x2="144" y2="224.1"/>
		<line id="line_141" class="line" x1="157.5" y1="239.6" x2="144" y2="229.6"/>
		<line id="line_142" class="line" x1="157.5" y1="239.6" x2="157.5" y2="234.6"/>
		<line id="line_143" class="line" x1="157.5" y1="239.6" x2="150.75" y2="239.6"/>
		<line id="line_144" class="line" x1="140.67" y1="218.21" x2="140.67" y2="234.31"/>
		<line id="line_145" class="line" x1="140.67" y1="226.26" x2="135.41" y2="226.26"/>
		<line id="line_146" class="line" x1="144.47" y1="255.5" x2="144.47" y2="282.18"/>
		<line id="line_147" class="line" x1="157.97" y1="255.49" x2="144.47" y2="266.68"/>
		<line id="line_148" class="line" x1="157.97" y1="282.18" x2="144.47" y2="272.18"/>
		<line id="line_149" class="line" x1="157.97" y1="282.18" x2="157.97" y2="277.18"/>
		<line id="line_150" class="line" x1="157.97" y1="282.18" x2="151.22" y2="282.18"/>
		<line id="line_151" class="line" x1="141.14" y1="260.79" x2="141.14" y2="276.89"/>
		<line id="line_152" class="line" x1="141.14" y1="268.84" x2="135.88" y2="268.84"/>
		<line id="line_169" class="line" x1="157.5" y1="117.51" x2="157.5" y2="89.65"/>
		<line id="line_185" class="line" x1="157.5" y1="89.65" x2="79.7" y2="89.65"/>
		<line id="line_220" class="line" x1="157.5" y1="144.2" x2="157.97" y2="160.09"/>
		<line id="line_252" class="line" x1="157.97" y1="186.78" x2="157.5" y2="212.91"/>
		<line id="line_272" class="line" x1="157.5" y1="239.6" x2="157.97" y2="255.49"/>
		<line id="line_296" class="line" x1="157.97" y1="282.18" x2="157.97" y2="305"/>
		<line id="line_312" class="line" x1="157.97" y1="305" x2="79.71" y2="305"/>
		<line id="line_330" class="line" x1="176.26" y1="129.61" x2="173.39" y2="135.03"/>
		<line id="line_360" class="line" x1="176.26" y1="129.61" x2="179.95" y2="135.03"/>
		<line id="line_380" class="line" x1="179.95" y1="135.03" x2="173.39" y2="135.03"/>
		<line id="line_397" class="line" x1="173.39" y1="129.61" x2="179.95" y2="129.61"/>
		<line id="line_480" class="line" x1="176.26" y1="129.61" x2="176.67" y2="112.98"/>
		<line id="line_511" class="line" x1="176.67" y1="135.03" x2="176.67" y2="152.15"/>
		<line id="line_530" class="line" x1="176.67" y1="152.15" x2="157.74" y2="152.14"/>
		<line id="line_556" class="line" x1="176.67" y1="112.98" x2="157.5" y2="112.98"/>
		<line id="line_557" class="line" x1="176.2" y1="171.57" x2="173.33" y2="176.99"/>
		<line id="line_558" class="line" x1="176.2" y1="171.57" x2="179.89" y2="176.99"/>
		<line id="line_559" class="line" x1="179.89" y1="176.99" x2="173.33" y2="176.99"/>
		<line id="line_560" class="line" x1="173.33" y1="171.57" x2="179.89" y2="171.57"/>
		<line id="line_561" class="line" x1="176.2" y1="171.57" x2="176.61" y2="154.94"/>
		<line id="line_562" class="line" x1="176.61" y1="176.99" x2="176.61" y2="194.11"/>
		<line id="line_563" class="line" x1="176.61" y1="194.11" x2="157.68" y2="194.1"/>
		<line id="line_564" class="line" x1="176.61" y1="154.94" x2="157.44" y2="154.94"/>
		<line id="line_565" class="line" x1="176.2" y1="225.3" x2="173.33" y2="230.72"/>
		<line id="line_566" class="line" x1="176.2" y1="225.3" x2="179.89" y2="230.72"/>
		<line id="line_567" class="line" x1="179.89" y1="230.72" x2="173.33" y2="230.72"/>
		<line id="line_568" class="line" x1="173.33" y1="225.3" x2="179.89" y2="225.3"/>
		<line id="line_569" class="line" x1="176.2" y1="225.3" x2="176.61" y2="208.67"/>
		<line id="line_570" class="line" x1="176.61" y1="230.72" x2="176.61" y2="247.84"/>
		<line id="line_571" class="line" x1="176.61" y1="247.84" x2="157.68" y2="247.83"/>
		<line id="line_572" class="line" x1="176.61" y1="208.67" x2="157.44" y2="208.67"/>
		<line id="line_573" class="line" x1="177.26" y1="267.32" x2="174.39" y2="272.74"/>
		<line id="line_574" class="line" x1="177.26" y1="267.32" x2="180.95" y2="272.74"/>
		<line id="line_575" class="line" x1="180.95" y1="272.74" x2="174.39" y2="272.74"/>
		<line id="line_576" class="line" x1="174.39" y1="267.32" x2="180.95" y2="267.32"/>
		<line id="line_577" class="line" x1="177.26" y1="267.32" x2="177.67" y2="250.69"/>
		<line id="line_578" class="line" x1="177.67" y1="272.74" x2="177.67" y2="289.86"/>
		<line id="line_579" class="line" x1="177.67" y1="289.86" x2="158.74" y2="289.85"/>
		<line id="line_580" class="line" x1="177.67" y1="250.69" x2="158.5" y2="250.69"/>
		<g id="group">
			<line id="line_581" class="line" transform="matrix(0,1,-1,0,266.6449966431,39.5349960327)" x1="114.99" y1="150.38" x2="112.12" y2="155.8"/>
			<line id="line_582" class="line" transform="matrix(0,1,-1,0,269.9249954224,42.814994812)" x1="111.71" y1="153.66" x2="115.4" y2="159.08"/>
			<line id="line_583" class="line" transform="matrix(0,1,-1,0,265.7699890137,44.0899963379)" x1="114.12" y1="154.93" x2="107.56" y2="154.93"/>
			<line id="line_584" class="line" transform="matrix(0,1,-1,0,271.189994812,38.6699905396)" x1="112.98" y1="154.93" x2="119.54" y2="154.93"/>
			<line id="line_585" class="line" transform="matrix(0,1,-1,0,291.5800018311,17.879989624)" x1="136.64" y1="175.32" x2="137.06" y2="134.14"/>
			<line id="line_586" class="line" transform="matrix(0,1,-1,0,257.2099914551,52.6499938965)" x1="102.28" y1="146.37" x2="102.28" y2="163.49"/>
		</g>
		<g id="group_595">
			<line id="line_589" class="line" transform="matrix(0,-1,1,0,-137.7849960327,364.0149917603)" x1="114.55" y1="248.19" x2="111.68" y2="253.61"/>
			<line id="line_590" class="line" transform="matrix(0,-1,1,0,-134.5049972534,360.734992981)" x1="111.27" y1="244.91" x2="114.96" y2="250.33"/>
			<line id="line_591" class="line" transform="matrix(0,-1,1,0,-133.2299957275,364.8899993896)" x1="119.11" y1="249.06" x2="112.55" y2="249.06"/>
			<line id="line_592" class="line" transform="matrix(0,-1,1,0,-138.6499938965,359.4700012207)" x1="107.13" y1="249.06" x2="113.69" y2="249.06"/>
			<line id="line_593" class="line" transform="matrix(0,-1,1,0,-147.1999969482,351.3300018311)" x1="101.86" y1="257.61" x2="102.27" y2="240.92"/>
		</g>
		<line id="line_636" class="line" x1="115.83" y1="249.06" x2="157.73" y2="249.06"/>
		<line id="line_665" class="line" x1="93.72" y1="154.93" x2="93.72" y2="249.07"/>
		<line id="line_683" class="line" x1="93.72" y1="202" x2="79.71" y2="202"/>
		<ellipse id="ellipse" class="ellipse" cx="76.57" cy="305.08" rx="2.66" ry="3.19"/>
		<ellipse id="ellipse_684" class="ellipse" cx="79.23" cy="202" rx="2.66" ry="3.19"/>
		<ellipse id="ellipse_685" class="ellipse" cx="76.57" cy="89.65" rx="2.66" ry="3.19"/>
		<line id="line_708" class="line" x1="157.74" y1="202" x2="209.75" y2="202"/>
		<ellipse id="ellipse_709" class="ellipse" cx="212.41" cy="203.03" rx="2.66" ry="3.19"/>
		<text id="text" class="text font-size-xs" x="71.2" y="97.57">
			<tspan dx="0" dy="16.61" x="71.2">V+</tspan>
		</text>
		<text id="text_710" class="text font-size-xs" x="68.41" y="179.89">
			<tspan dx="0" dy="16.61" x="68.41">Vn</tspan>
		</text>
		<text id="text_711" class="text font-size-xs" x="68.64" y="279.68">
			<tspan dx="0" dy="16.61" x="68.64">V-</tspan>
		</text>
		<text id="text_712" class="text font-size-xs" x="192.55" y="177">
			<tspan dx="0" dy="16.61" x="192.55">A</tspan>
		</text>
		<text id="text_713" class="text font-size-default" x="174.77" y="346.17">
			<tspan dx="0" dy="23.6" x="174.77">SSE</tspan>
		</text>
	</g>
</svg>
