<svg xmlns="http://www.w3.org/2000/svg" xmlns:d="http://www.mathworks.com/blockgraphics" xmlns:xlink="http://www.w3.org/1999/xlink" version="1.1" id="svg" width="396" height="400" d:options="PreserveAspect:On;ScalingOnResizeMax:2.0;Rotate:Off;Resize:FitToBlock;">
	<defs>
		<style>
			.font-size-xs {
				font-size: 28px; stroke-width: 0.7px;
			}
					</style>
	</defs>
	<g id="part" title="part_0" ie-ports="left:simulink*simulink,top:,right:simulink,bottom:">
		<ellipse id="ellipse" class="ellipse" style="stroke-width: 3;" cx="203.75" cy="195.39" rx="105.13" ry="104.61"/>
		<text id="text_1" class="text font-size-xs" x="194.6" y="125.58">
			<tspan dx="0" dy="25.09" x="194.6">S</tspan>
		</text>
		<ellipse id="ellipse_29" class="ellipse" cx="209.07" cy="191.53" rx="5.13" ry="5.89"/>
		<path id="Inductor" class="path" transform="matrix(0.7986355101,-0.6018150233,0.6018150233,0.7986355101,-33.43605532,100.0948071958)" d=" M 95.78,109.53 L 105.06,109.53 Q 106.91,90.45 114.34,90.45 Q 121.76,90.45 123.62,109.53 Q 125.47,90.45 132.89,90.45 Q 140.32,90.45 142.17,109.53 Q 144.03,90.45 151.45,90.45 Q 158.87,90.45 160.73,109.53 L 170.01,109.53"/>
		<path id="Inductor_30" class="path" transform="matrix(-1e-10,1.0000000001,-1.0000000001,-1e-10,521.1775486522,-138.126512492)" d=" M 292.54,199.91 L 301.82,199.91 Q 303.67,183.18 311.1,183.18 Q 318.52,183.18 320.38,199.91 Q 322.23,183.18 329.65,183.18 Q 337.08,183.18 338.93,199.91 Q 340.79,183.18 348.21,183.18 Q 355.63,183.18 357.49,199.91 L 366.77,199.91"/>
		<path id="Inductor_31" class="path" transform="matrix(-0.7193398003,-0.6946583706,0.6946583706,-0.7193398003,-2.0105224274,568.5025769147)" d=" M 76.71,293.59 L 85.99,293.59 Q 87.84,275.83 95.27,275.83 Q 102.69,275.83 104.55,293.59 Q 106.4,275.83 113.82,275.83 Q 121.25,275.83 123.1,293.59 Q 124.96,275.83 132.38,275.83 Q 139.8,275.83 141.66,293.59 L 150.94,293.59"/>
		<ellipse id="ellipse_118" class="ellipse" cx="203.94" cy="195.38" rx="86.03" ry="84.28"/>
		<ellipse id="ellipse_150" class="ellipse" cx="202.94" cy="194.39" rx="4.78" ry="5.58"/>
		<rect id="rect" class="rect" transform="matrix(0.8090169944,0.5877852523,-0.5877852523,0.8090169944,132.1423828948,-114.4424363981)" x="222.56" y="134.98" width="39.24" height="22.29" rx="0" ry="0"/>
		<rect id="rect_203" class="rect" transform="matrix(0.8090169944,0.5877852523,-0.5877852523,0.8090169944,175.4748649715,-52.8661006695)" x="149.47" y="232.45" width="39.24" height="22.29" rx="0" ry="0"/>
		<rect id="rect_204" class="rect" transform="matrix(0.6018150232,-0.7986355101,0.7986355101,0.6018150232,-65.3837128811,186.750574635)" x="134.97" y="147.8" width="39.24" height="22.29" rx="0" ry="0"/>
		<rect id="rect_205" class="rect" transform="matrix(0.6018150232,-0.7986355101,0.7986355101,0.6018150232,-87.0441595329,293.7464116328)" x="231.44" y="223.02" width="39.24" height="22.29" rx="0" ry="0"/>
		<text id="text" class="text font-size-xs" x="104.93" y="63.05">
			<tspan dx="0" dy="25.09" x="104.93">A</tspan>
		</text>
		<text id="text_206" class="text font-size-xs" x="345.44" y="175.85">
			<tspan dx="0" dy="25.09" x="345.44">B</tspan>
		</text>
		<text id="text_207" class="text font-size-xs" x="81.02" y="284.32">
			<tspan dx="0" dy="25.09" x="81.02">C</tspan>
		</text>
	</g>
</svg>
