<svg xmlns="http://www.w3.org/2000/svg" xmlns:d="http://www.mathworks.com/blockgraphics" xmlns:xlink="http://www.w3.org/1999/xlink" version="1.1" id="svg" width="238" height="399" d:options="PreserveAspect:On;ScalingOnResizeMax:2.0;Rotate:Off;Resize:FitToBlock;">
	<defs>
		<style>
			.font-size-default {
				font-size: 24px; stroke-width: 0.6px;
			}
			.font-size-xs {
				font-size: 17px; stroke-width: 0.44px;
			}
					</style>
	</defs>
	<g id="part_1" title="part_0" ie-ports="left:simulink*simulink,top:,right:simulink*simulink*simulink*simulink*simulink*simulink*simulink*simulink*simulink*simulink*simulink*simulink,bottom:">
		<path id="Inductor" class="path" transform="matrix(0,1,-1,0,286.7641448975,103.5445098877)" d=" M -34.85,202.67 L -3.24,202.67 Q 3.09,187.63 28.38,187.63 Q 53.67,187.63 59.99,202.67 Q 66.32,187.63 91.61,187.63 Q 116.9,187.63 123.22,202.67 Q 129.55,187.63 154.84,187.63 Q 180.13,187.63 186.45,202.67 L 218.07,202.67"/>
		<line id="line" class="line" x1="119" y1="42.81" x2="119" y2="362.81"/>
		<line id="line_12" class="line" x1="128" y1="42.81" x2="128" y2="362.81"/>
		<line id="line_39" class="line" x1="84.1" y1="68.69" x2="50.01" y2="68.69"/>
		<line id="line_50" class="line" x1="84.1" y1="321.61" x2="50.01" y2="321.61"/>
		<g id="group_182">
			<g id="group">
				<path id="Inductor_2" class="path" transform="matrix(0,-1,1,0,88.1057052612,231.0664749146)" d=" M 138.99,81 L 144.14,81 Q 145.17,61.96 149.29,61.96 Q 153.41,61.96 154.44,81 Q 155.47,61.96 159.59,61.96 Q 163.71,61.96 164.74,81 Q 165.77,61.96 169.89,61.96 Q 174.01,61.96 175.04,81 L 180.19,81"/>
				<line id="line_61" class="line" x1="169.11" y1="50.87" x2="185.01" y2="50.87"/>
				<line id="line_79" class="line" x1="169.11" y1="92.07" x2="185.01" y2="92.08"/>
			</g>
			<ellipse id="ellipse" class="ellipse" cx="186.27" cy="50.78" rx="2.27" ry="2.09"/>
			<ellipse id="ellipse_181" class="ellipse" cx="187.28" cy="92.07" rx="2.27" ry="2.09"/>
		</g>
		<g id="group_189">
			<g id="group_186">
				<path id="Inductor_183" class="path" transform="matrix(0,-1,1,0,40.1171264648,280.6694030762)" d=" M 139.79,129.79 L 144.94,129.79 Q 145.97,110.75 150.09,110.75 Q 154.21,110.75 155.24,129.79 Q 156.27,110.75 160.39,110.75 Q 164.51,110.75 165.54,129.79 Q 166.57,110.75 170.69,110.75 Q 174.81,110.75 175.84,129.79 L 180.99,129.79"/>
				<line id="line_184" class="line" x1="169.91" y1="99.66" x2="185.81" y2="99.66"/>
				<line id="line_185" class="line" x1="169.91" y1="140.86" x2="185.81" y2="140.87"/>
			</g>
			<ellipse id="ellipse_187" class="ellipse" cx="187.07" cy="99.57" rx="2.27" ry="2.09"/>
			<ellipse id="ellipse_188" class="ellipse" cx="188.08" cy="140.86" rx="2.27" ry="2.09"/>
		</g>
		<g id="group_196">
			<g id="group_193">
				<path id="Inductor_190" class="path" transform="matrix(0,-1,1,0,-7.3131256104,331.7140045167)" d=" M 141.61,179.04 L 146.76,179.04 Q 147.79,160 151.91,160 Q 156.03,160 157.06,179.04 Q 158.09,160 162.21,160 Q 166.33,160 167.36,179.04 Q 168.39,160 172.51,160 Q 176.63,160 177.66,179.04 L 182.81,179.04"/>
				<line id="line_191" class="line" x1="171.73" y1="148.91" x2="187.63" y2="148.91"/>
				<line id="line_192" class="line" x1="171.73" y1="190.11" x2="187.63" y2="190.12"/>
			</g>
			<ellipse id="ellipse_194" class="ellipse" cx="188.89" cy="148.82" rx="2.27" ry="2.09"/>
			<ellipse id="ellipse_195" class="ellipse" cx="189.9" cy="190.11" rx="2.27" ry="2.09"/>
		</g>
		<g id="group_203">
			<g id="group_200">
				<path id="Inductor_197" class="path" transform="matrix(0,-1,1,0,-56.6592864991,381.076034546)" d=" M 141.61,228.38 L 146.76,228.38 Q 147.79,209.34 151.91,209.34 Q 156.03,209.34 157.06,228.38 Q 158.09,209.34 162.21,209.34 Q 166.33,209.34 167.36,228.38 Q 168.39,209.34 172.51,209.34 Q 176.63,209.34 177.66,228.38 L 182.81,228.38"/>
				<line id="line_198" class="line" x1="171.73" y1="198.25" x2="187.63" y2="198.25"/>
				<line id="line_199" class="line" x1="171.73" y1="239.45" x2="187.63" y2="239.46"/>
			</g>
			<ellipse id="ellipse_201" class="ellipse" cx="188.89" cy="198.16" rx="2.27" ry="2.09"/>
			<ellipse id="ellipse_202" class="ellipse" cx="189.9" cy="239.45" rx="2.27" ry="2.09"/>
		</g>
		<g id="group_210">
			<g id="group_207">
				<path id="Inductor_204" class="path" transform="matrix(0,-1,1,0,-104.2582702637,430.2733154298)" d=" M 142.42,276.79 L 147.57,276.79 Q 148.6,257.75 152.72,257.75 Q 156.84,257.75 157.87,276.79 Q 158.9,257.75 163.02,257.75 Q 167.14,257.75 168.17,276.79 Q 169.2,257.75 173.32,257.75 Q 177.44,257.75 178.47,276.79 L 183.62,276.79"/>
				<line id="line_205" class="line" x1="172.54" y1="246.66" x2="188.44" y2="246.66"/>
				<line id="line_206" class="line" x1="172.54" y1="287.86" x2="188.44" y2="287.87"/>
			</g>
			<ellipse id="ellipse_208" class="ellipse" cx="189.7" cy="246.57" rx="2.27" ry="2.09"/>
			<ellipse id="ellipse_209" class="ellipse" cx="190.71" cy="287.86" rx="2.27" ry="2.09"/>
		</g>
		<g id="group_217">
			<g id="group_214">
				<path id="Inductor_211" class="path" transform="matrix(0,-1,1,0,-153.1822967529,478.85987854)" d=" M 142.25,325.54 L 147.4,325.54 Q 148.43,306.5 152.55,306.5 Q 156.67,306.5 157.7,325.54 Q 158.73,306.5 162.85,306.5 Q 166.97,306.5 168,325.54 Q 169.03,306.5 173.15,306.5 Q 177.27,306.5 178.3,325.54 L 183.45,325.54"/>
				<line id="line_212" class="line" x1="172.37" y1="295.41" x2="188.27" y2="295.41"/>
				<line id="line_213" class="line" x1="172.37" y1="336.61" x2="188.27" y2="336.62"/>
			</g>
			<ellipse id="ellipse_215" class="ellipse" cx="189.53" cy="295.32" rx="2.27" ry="2.09"/>
			<ellipse id="ellipse_216" class="ellipse" cx="190.54" cy="336.61" rx="2.27" ry="2.09"/>
		</g>
		<ellipse id="ellipse_236" class="ellipse" cx="46.32" cy="69.38" rx="4.08" ry="3.69"/>
		<ellipse id="ellipse_237" class="ellipse" cx="46.32" cy="321.61" rx="4.08" ry="3.69"/>
		<g id="group_239">
			<text id="text" class="text font-size-default" x="167.23" y="347.88">
				<tspan dx="0" dy="21.95" x="167.23">z</tspan>
			</text>
			<text id="text_238" class="text font-size-xs" x="173.37" y="342.46">
				<tspan dx="0" dy="15.58" x="173.37">-1</tspan>
			</text>
		</g>
		<text id="text_2" class="text font-size-default" x="34.01" y="184.15">
			<tspan dx="0" dy="21.95" x="34.01">p</tspan>
		</text>
		<text id="text_3" class="text font-size-default" x="195.17" y="55.24">
			<tspan dx="0" dy="21.95" x="195.17">s</tspan>
		</text>
		<text id="text_4" class="text font-size-xs" x="202.44" y="71.58">
			<tspan dx="0" dy="15.58" x="202.44">1</tspan>
		</text>
		<text id="text_5" class="text font-size-default" x="197.17" y="104.24">
			<tspan dx="0" dy="21.95" x="197.17">s</tspan>
		</text>
		<text id="text_6" class="text font-size-xs" x="205.8" y="121.4">
			<tspan dx="0" dy="15.58" x="205.8">2</tspan>
		</text>
		<text id="text_7" class="text font-size-default" x="196.17" y="155.24">
			<tspan dx="0" dy="21.95" x="196.17">s</tspan>
		</text>
		<text id="text_8" class="text font-size-xs" x="202.17" y="172.4">
			<tspan dx="0" dy="15.58" x="202.17" style="white-space: pre;"> 3</tspan>
		</text>
		<text id="text_9" class="text font-size-default" x="195.17" y="204.24">
			<tspan dx="0" dy="21.95" x="195.17">s</tspan>
		</text>
		<text id="text_10" class="text font-size-xs" x="205.44" y="221.4">
			<tspan dx="0" dy="15.58" x="205.44">4</tspan>
		</text>
		<text id="text_11" class="text font-size-default" x="195.17" y="251.24">
			<tspan dx="0" dy="21.95" x="195.17">s</tspan>
		</text>
		<text id="text_12" class="text font-size-xs" x="206.44" y="267.58">
			<tspan dx="0" dy="15.58" x="206.44">5</tspan>
		</text>
		<text id="text_13" class="text font-size-default" x="198.17" y="298.24">
			<tspan dx="0" dy="21.95" x="198.17">s</tspan>
		</text>
		<text id="text_14" class="text font-size-xs" x="208.44" y="314.58">
			<tspan dx="0" dy="15.58" x="208.44">6</tspan>
		</text>
	</g>
</svg>
